PathFileType	4	(X/Y/Z)	C:/Users/beibeiliu/ov580/test_trc/User2\sequence.6_training_dense_left.trc
DataRate	CameraRate	NumFrames	NumMarkers	Units	OrigDataRate	OrigDataStartFrame	OrigNumFrames
120	120	8	19	mm	120	143	381
Frame#	Time	ThumbCMC			ThumbMCP			ThumbIP			ThumbTip			IndexMCP			IndexPIP			IndexTip			MiddleMCP			MiddlePIP			MiddleTip			RingMCP			RingPIP			RingTip			PinkyMCP			PinkyPIP			PinkyTip			BackHand1			BackHand2			BackHand3	
		X0	Y0	Z0	X1	Y1	Z1	X2	Y2	Z2	X3	Y3	Z3	X4	Y4	Z4	X5	Y5	Z5	X6	Y6	Z6	X7	Y7	Z7	X8	Y8	Z8	X9	Y9	Z9	X10	Y10	Z10	X11	Y11	Z11	X12	Y12	Z12	X13	Y13	Z13	X14	Y14	Z14	X15	Y15	Z15	X16	Y16	Z16	X17	Y17	Z17	X18	Y18	Z18	
142	1.18333	-199.4	14.0725	104.468	-179.705	33.8185	77.1886	-156.269	44.7585	50.8469	-131.22	40.7269	40.1981	-180.315	-33.9594	38.1724	-170.662	-37.9489	9.41699	-160.804	-36.7487	-16.3792	-143.509	-25.7487	38.2969	-123.661	3.53448	28.8883	-126.368	34.0174	57.771	-123.244	-24.7602	52.7629	-109.91	5.42362	48.6636	-129.485	29.7548	72.3515	-104.923	-23.7579	71.7311	-105.562	7.68693	65.2493	-125.22	24.1889	87.2764	-153.77	-45.7534	105.057	-162.886	-44.5019	137.008	-188.828	-33.8168	109.86	
143	1.19167	-197.299	12.8556	102.796	-176.49	32.4036	77.6862	-154.337	43.7375	51.9346	-129.024	39.4958	40.1622	-179.92	-33.1121	37.4849	-173.508	-37.8596	10.5881	-164.696	-38.5685	-17.2545	-139.541	-27.8377	38.6715	-121.745	3.53092	30.0592	-126.571	34.3027	54.836	-121.897	-26.9367	54.1521	-108.806	6.49351	49.6898	-122.49	27.6015	70.1219	-107.254	-27.6855	75.718	-103.988	5.58704	65.334	-125.281	22.6399	88.6761	-155.543	-47.5339	103.422	-163.275	-43.601	138.367	-187.785	-32.3441	109.699	
144	1.2	-194.981	14.2735	103.574	-175.44	34.1992	74.3316	-150.721	42.5726	50.2283	-125.112	38.8249	35.8445	-180.445	-33.2908	37.8826	-175.573	-35.0118	7.90972	-165.838	-36.5108	-21.3324	-141.9	-30.2128	40.2331	-122.374	-1.68143	28.4491	-125.01	32.5335	53.1926	-121.029	-26.1794	50.792	-108.881	-0.803362	46.859	-120.749	26.9284	73.3436	-111.06	-29.1238	73.9683	-102.059	3.90731	66.9361	-118.567	20.9668	84.3598	-156.726	-47.0972	104.694	-166.323	-43.5932	138.615	-190.02	-31.4072	106.163	
145	1.20833	-192.727	16.5937	99.0207	-170.363	34.3476	75.2553	-143.787	40.6239	49.7351	-120.266	36.151	37.7226	-179.083	-32.1672	33.7927	-172.669	-34.0728	8.65655	-160.947	-31.4982	-17.3605	-142.012	-32.4724	42.0523	-119.643	-6.35391	29.6427	-119.898	30.1076	52.9987	-125.145	-32.1738	54.449	-106.199	-4.34198	48.4003	-117.738	23.0805	71.3796	-106.161	-33.8936	72.3202	-97.713	-2.89191	67.7088	-114.393	18.3764	85.9532	-156.333	-47.392	107.28	-168.209	-44.1935	139.424	-192.486	-28.3001	108.466	
146	1.21667	-186.916	16.8013	102.769	-163.137	32.9534	77.6303	-139.421	43.1039	52.1619	-114.526	31.9398	42.1217	-177.487	-31.9959	36.1796	-170.837	-30.4701	8.73796	-146.858	-22.3856	-18.1032	-145.736	-35.7535	41.411	-117.994	-12.8166	29.489	-113.199	20.5627	49.9254	-123.171	-36.3642	53.4852	-103.66	-8.33463	48.7654	-108.875	16.4651	67.7262	-109.093	-38.9049	76.2397	-97.9206	-10.3192	66.5783	-112.939	15.7846	82.8722	-160.435	-46.7952	108.534	-171.919	-42.7419	138.644	-193.346	-28.6597	109.878	
147	1.225	-182.556	20.5961	100.869	-156.745	36.1731	77.0067	-129.545	33.8073	55.2742	-105.656	26.9005	40.4125	-180.347	-28.3299	37.1808	-165.198	-29.4643	8.80535	-138.52	-16.2858	-5.87845	-144.297	-40.4313	43.673	-118.568	-21.7513	28.8219	-107.546	10.9466	47.3208	-124.93	-42.9506	58.8041	-104.561	-17.4722	49.167	-104.203	12.3201	70.6017	-110.834	-47.1277	78.6508	-97.2168	-15.9682	68.5483	-108.178	10.2981	84.6384	-162.325	-49.0685	108.222	-177.651	-37.0182	142.242	-196.107	-19.7693	109.048	
148	1.23333	-178.321	26.3879	102.272	-146.979	32.5122	76.9625	-120.623	29.5427	56.1106	-96.6582	18.5648	42.3404	-178.673	-26.3363	39.1799	-160.126	-29.0394	11.4284	-127.016	-13.5591	6.9603	-151.97	-40.8906	42.9974	-119.821	-27.3329	28.2921	-101.744	1.39483	50.1072	-127.569	-48.0674	59.2786	-104.795	-27.4293	50.2437	-102.673	5.30575	68.2027	-117.928	-52.1003	79.296	-98.0404	-25.2824	69.1872	-104.055	3.01167	86.0137	-168.248	-47.1615	108.102	-183.587	-32.5902	142.195	-196.132	-16.1781	108.516	
149	1.24167	-169.067	27.4371	103.139	-136.723	33.8197	79.8109	-108.837	22.9519	54.594	-90.5317	2.93796	43.9273	-177.426	-22.7467	34.5081	-158.806	-27.818	12.9595	-123.438	-11.0081	15.0082	-157.049	-39.5125	43.814	-122.211	-35.8218	28.488	-98.85	-4.77278	49.8829	-136.393	-49.2855	56.9564	-106.146	-35.6964	51.5813	-96.1318	-9.62898	69.4901	-126.57	-56.6422	80.6889	-99.596	-38.676	72.8104	-100.566	-7.9017	88.4381	-174.955	-45.2514	108.721	-183.791	-31.1076	141.695	-197.243	-6.49752	107.588	
